<?xml version="1.0" encoding="UTF-8"?>
<svg version="1.1" xmlns="http://www.w3.org/2000/svg" width="2480" height="1984">
<path d="M0 0 C56.43 0 112.86 0 171 0 C171.04898438 26.76867187 171.09796875 53.53734375 171.1484375 81.1171875 C171.18382818 98.08854476 171.21969904 115.05989896 171.2578125 132.03125 C171.27781775 140.95052051 171.29770174 149.86979127 171.31738281 158.7890625 C171.31985425 159.90680565 171.32232569 161.0245488 171.32487202 162.17616296 C171.36449149 180.17445235 171.39727766 198.17274795 171.42749982 216.1710553 C171.4587154 234.66950234 171.49736722 253.16792329 171.54279006 271.66634095 C171.57054302 283.06254614 171.59263257 294.45873246 171.60726251 305.85496219 C171.61787996 313.69087494 171.6357803 321.52675095 171.65916704 329.3626359 C171.67241217 333.87006017 171.68267806 338.3774334 171.68421364 342.88487816 C170.23172188 397.62864267 170.23172188 397.62864267 192.75 445.8203125 C206.79146271 459.4229795 223.34616913 461.50974738 241.953125 461.2734375 C258.84897873 460.74707068 274.10418471 452.81692976 285.62304688 440.57714844 C292.64294588 432.53662582 297.40473298 423.36562006 300 413 C300.18949219 412.24460937 300.37898438 411.48921875 300.57421875 410.7109375 C303.35796135 392.986925 300.11668614 374.91176972 290 360 C280.35542379 347.18895797 267.15039061 337.45322389 251 335 C232.19848167 333.71326342 216.42717217 337.60685637 200.71484375 348.21875 C198 350 198 350 196 350 C196 287.63 196 225.26 196 161 C220.28043735 158.6875774 220.28043735 158.6875774 228.8203125 158.6640625 C229.8056044 158.65568359 230.7908963 158.64730469 231.80604553 158.63867188 C234.91253689 158.61954661 238.01846096 158.61902339 241.125 158.625 C242.73225449 158.62581573 242.73225449 158.62581573 244.37197876 158.62664795 C260.87992013 158.66507318 276.84343182 159.29739482 293 163 C293.96244629 163.21962402 294.92489258 163.43924805 295.91650391 163.66552734 C334.21465747 172.7285471 369.73747146 190.94504919 398.203125 218.3203125 C400.70076779 220.71330545 403.25634837 222.99163265 405.875 225.25 C409.19118789 228.18839433 412.15378108 231.25002248 415.0078125 234.63671875 C416.5419478 236.45662436 418.09708884 238.24254939 419.6796875 240.01953125 C447.39725994 271.35144211 465.207005 308.99096072 473 350 C473.16661133 350.87172852 473.33322266 351.74345703 473.50488281 352.64160156 C478.52502083 380.48621803 478.36392866 412.23094614 473 440 C472.70198486 441.55895996 472.70198486 441.55895996 472.39794922 443.14941406 C465.3720456 478.67364583 450.78491148 511.73126236 428 540 C427.58911133 540.51240234 427.17822266 541.02480469 426.75488281 541.55273438 C414.81486967 556.31525622 401.25533808 570.64623012 386 582 C385.39494629 582.4650293 384.78989258 582.93005859 384.16650391 583.40917969 C352.45222594 607.74822228 315.55117043 623.18169007 276 629 C274.80842285 629.17732666 273.6168457 629.35465332 272.38916016 629.53735352 C261.33477435 631.06714308 250.36719531 631.34048708 239.21777344 631.31567383 C236.26719991 631.31251839 233.31763788 631.33606238 230.3671875 631.36132812 C213.05088269 631.41991716 196.25551914 629.44620476 179.4375 625.25 C178.39505127 624.99323486 177.35260254 624.73646973 176.27856445 624.47192383 C118.58021254 609.83716755 66.93081422 574.10182962 35.625 523.1875 C5.47619474 472.45322018 -0.36341788 417.31841639 -0.23213124 359.61933553 C-0.2233749 354.77787601 -0.22642538 349.93642068 -0.22793579 345.09495544 C-0.22897705 336.73634483 -0.2227806 328.3777658 -0.21146011 320.01916313 C-0.19510402 307.93450175 -0.18998685 295.84985542 -0.18748413 283.76518417 C-0.18312276 264.15163434 -0.16985626 244.53810129 -0.15087891 224.92456055 C-0.13247956 205.88842858 -0.11834298 186.85230119 -0.10986328 167.81616211 C-0.10933783 166.63987995 -0.10881239 165.46359779 -0.10827102 164.25167071 C-0.10566067 158.34974438 -0.10313332 152.44781802 -0.10064721 146.54589164 C-0.07996329 97.69724619 -0.04311998 48.84863181 0 0 Z " fill="#0F75BC" transform="translate(618,626)"/>
<path d="M0 0 C139.59 0 279.18 0 423 0 C421.74831554 3.75505338 420.69871544 6.85365194 418.96875 10.29296875 C418.36933594 11.48889648 418.36933594 11.48889648 417.7578125 12.70898438 C417.34273437 13.52689453 416.92765625 14.34480469 416.5 15.1875 C416.11585938 15.95513672 415.73171875 16.72277344 415.3359375 17.51367188 C413.23442695 21.68695461 411.09182527 25.8366656 408.90039062 29.96337891 C401.52536624 43.85642039 394.50137228 57.91564078 387.5 72 C374.44454219 98.26310248 374.44454219 98.26310248 367.77575684 110.80639648 C361.97343924 121.76314616 356.51743213 132.8980448 351 144 C344.71453793 156.64735419 338.42991433 169.28379866 331.80126953 181.75537109 C325.99178231 192.729881 320.52591566 203.88097457 315 215 C301.73931814 241.68261115 301.73931814 241.68261115 295.5090332 253.33764648 C291.86739053 260.16542201 288.46658693 267.06682615 285 274 C337.47 274.33 389.94 274.66 444 275 C444 334.07 444 393.14 444 454 C299.13 454 154.26 454 5 454 C10.63280138 442.10853042 16.2932967 430.26116384 22.18359375 418.5 C22.93159843 417.00331291 23.67948464 415.50656662 24.42726135 414.00976562 C25.97796495 410.90690327 27.53007265 407.80474881 29.08325195 404.703125 C31.04315563 400.78901148 32.99946123 396.87311266 34.9546957 392.95666504 C36.49341496 389.87555933 38.03409104 386.79543512 39.57530403 383.71557617 C40.29610413 382.27462847 41.01634315 380.83339992 41.73592949 379.3918457 C45.63990024 371.5738128 49.61787681 363.80245951 53.70994568 356.08110046 C58.5456248 346.9213807 63.22330932 337.68964909 67.84619141 328.42114258 C68.67506983 326.76310254 69.50412618 325.10515145 70.33334351 323.44728088 C72.5493473 319.01555614 74.76291078 314.58261683 76.97598314 310.14942765 C79.30205977 305.49095404 81.6304551 300.83363961 83.95858765 296.17619324 C88.35144644 287.38738763 92.74226792 278.59756592 97.13232839 269.80736226 C103.07564871 257.90737281 109.02217576 246.00898602 114.96850777 234.11050129 C124.314932 215.40829571 133.65712269 196.70397871 143 178 C95.81 178 48.62 178 0 178 C0 119.26 0 60.52 0 0 Z " fill="#000000" transform="translate(1395,794)"/>
<path d="M0 0 C56.76 0 113.52 0 172 0 C172 205.26 172 410.52 172 622 C115.24 622 58.48 622 0 622 C0 416.74 0 211.48 0 0 Z " fill="#000000" transform="translate(1168,626)"/>
<path d="M0 0 C-0.02094727 0.57331055 -0.04189453 1.14662109 -0.06347656 1.73730469 C-0.14810797 4.40801477 -0.19911318 7.07844176 -0.25 9.75 C-0.28351563 10.65105469 -0.31703125 11.55210937 -0.3515625 12.48046875 C-0.52102345 24.4274655 4.00962921 33.76252004 10.25 43.6875 C25.5518529 68.88286613 33.00884954 93.43632495 33.62207031 122.99658203 C33.78357169 129.42820368 34.07198117 136.14396235 37 142 C39.44031637 141.82103693 39.44031637 141.82103693 42 141 C51.85766414 127.22376129 50.56809259 102.62516866 48.1328125 86.7734375 C47.10236789 80.78141415 45.99891083 74.7815282 44.4453125 68.90014648 C43.84156251 66.32394791 43.9060568 63.89122844 43.9375 61.25 C43.94652344 60.26515625 43.95554687 59.2803125 43.96484375 58.265625 C43.98224609 57.14414062 43.98224609 57.14414062 44 56 C71.63087623 78.33985738 91.81094586 115.79367516 95.71875 151.0390625 C97.68868902 178.78237038 93.79772152 209.33007861 75.2578125 231.3828125 C72.61705982 234.37070638 69.81912929 237.18087071 67 240 C66.37996094 240.70253906 65.75992188 241.40507813 65.12109375 242.12890625 C55.67586982 252.58838241 42.28177324 259.76815225 29 264 C28.06542969 264.34675781 27.13085938 264.69351562 26.16796875 265.05078125 C22.28807909 266.21331292 18.5193964 266.70794145 14.5 267.125 C13.70609863 267.2077417 12.91219727 267.2904834 12.09423828 267.37573242 C-13.70082843 269.89719112 -37.42980331 264.1587931 -58.125 248.1875 C-75.51592774 233.69971268 -87.01734388 215.77777474 -93 194 C-93.3196875 192.87464844 -93.639375 191.74929688 -93.96875 190.58984375 C-98.71925086 170.37822204 -97.61778966 146.8861445 -92 127 C-91.72712158 125.99743164 -91.72712158 125.99743164 -91.44873047 124.97460938 C-87.75433011 111.72891302 -81.7286355 99.46069498 -73.8125 88.25 C-73.40878174 87.67757568 -73.00506348 87.10515137 -72.58911133 86.51538086 C-70.07870523 83.10096177 -67.4155622 80.49948779 -64 78 C-64.58514021 83.26626188 -65.80450569 88.16652209 -67.28125 93.25390625 C-69.39807659 101.34156435 -69.24327806 109.45603212 -69.25 117.75 C-69.25067474 118.49231873 -69.25134949 119.23463745 -69.25204468 119.99945068 C-69.22274871 140.25638267 -67.04060297 161.87832417 -55 179 C-52.36878046 181.3686125 -51.60659356 182 -48 182 C-48.26216309 181.02353516 -48.52432617 180.04707031 -48.79443359 179.04101562 C-49.78541964 175.33856169 -50.76226016 171.63248631 -51.73535156 167.92529297 C-52.1544884 166.33609245 -52.57721081 164.74783229 -53.00390625 163.16064453 C-58.4896888 142.73127981 -63.59917136 119.64928047 -52.3671875 100.16796875 C-51.91601562 99.45253906 -51.46484375 98.73710937 -51 98 C-46.41238931 101.87487467 -44.87304135 106.55085041 -42.73242188 111.98046875 C-40.76777277 116.7549707 -38.65149357 120.30900032 -35 124 C-32.91330657 124.68260723 -32.91330657 124.68260723 -31 125 C-31.1416782 119.08322664 -31.28779858 113.16657584 -31.4375 107.25 C-31.45956512 106.37587463 -31.48163025 105.50174927 -31.50436401 104.60113525 C-31.74923954 95.01884765 -32.01122967 85.44549715 -32.5625 75.875 C-33.94394012 50.0465082 -32.18877093 29.8910311 -14.51123047 9.59179688 C-10.9456254 5.83610301 -5.34645439 0 0 0 Z " fill="#246CB5" transform="translate(696,336)"/>
<path d="M0 0 C6.02396678 4.53340985 11.56579686 9.11833321 12.73046875 16.8828125 C12.16796875 20.1328125 12.16796875 20.1328125 10.54296875 22.1328125 C7.29227454 23.50152585 5.54981141 23.0658802 2.16796875 22.1328125 C-0.140625 19.98828125 -0.140625 19.98828125 -2.26953125 17.3203125 C-7.19537957 11.51544074 -11.97619534 7.66066045 -19.7956543 6.95581055 C-32.90475653 6.34691536 -32.90475653 6.34691536 -44.83203125 11.1328125 C-45.78078125 11.6690625 -46.72953125 12.2053125 -47.70703125 12.7578125 C-51.43748977 16.9271485 -52.94777311 21.98765332 -52.7421875 27.57421875 C-51.79614356 32.89909464 -49.83686812 36.38916065 -45.83203125 40.1328125 C-38.89084049 44.77078997 -30.53443699 46.38735324 -22.4765625 48.03125 C-10.38397924 50.51784754 0.74898827 53.38550399 9.16796875 63.1328125 C15.59442952 73.63575958 17.01471219 85.22171915 14.51953125 97.26171875 C11.13658989 106.49975092 3.95243472 113.82321197 -4.83203125 118.1328125 C-11.94822884 120.87472099 -18.55560651 121.65103898 -26.14453125 121.5703125 C-27.15346436 121.56201416 -28.16239746 121.55371582 -29.2019043 121.54516602 C-42.74364974 121.23920554 -53.38373726 117.54355207 -63.15625 107.8203125 C-69.19563976 101.2279445 -69.19563976 101.2279445 -70.83203125 97.1328125 C-70.64453125 94.0078125 -70.64453125 94.0078125 -69.83203125 91.1328125 C-66.34079108 88.80531905 -64.93980874 88.62981934 -60.83203125 89.1328125 C-58.62585932 90.84081657 -57.08457949 92.80674617 -55.3828125 95.00390625 C-48.97463033 102.90583718 -40.90554837 106.87140207 -30.83203125 108.1328125 C-21.14036009 108.92500127 -12.56876807 107.22044896 -4.83203125 101.1328125 C0.43478324 95.58879725 1.61077308 90.38785889 1.5 82.92578125 C1.07915664 79.38574597 -0.05973272 76.83361862 -1.859375 73.7890625 C-2.83203125 72.1328125 -2.83203125 72.1328125 -3.83203125 69.1328125 C-5.6885525 68.01420778 -5.6885525 68.01420778 -7.83203125 67.1328125 C-8.40356934 66.80643799 -8.97510742 66.48006348 -9.56396484 66.14379883 C-15.30698076 62.9654958 -21.04144027 61.93828788 -27.45703125 60.8203125 C-40.67747518 58.27120048 -53.47770467 54.53846742 -61.83203125 43.1328125 C-66.74870012 34.39527194 -68.26696028 25.84321805 -65.70703125 16.0703125 C-62.42065229 6.25681977 -55.90602543 0.74746821 -46.875 -3.8671875 C-32.38617479 -10.43292964 -13.07893653 -8.62307815 0 0 Z " fill="#000000" transform="translate(989.83203125,1349.8671875)"/>
<path d="M0 0 C16.85372078 8.59883713 26.65293962 27.7548271 32.51831055 45.04296875 C37.77649767 61.31053569 41.32032471 78.99799495 33.8125 95.125 C29.80914247 102.59325177 23.72935455 110.15912977 16 114 C9.02364212 113.41863684 2.81286616 107.08846041 -1.75 102.125 C-8.48079764 93.94638776 -9.96868684 87.64415896 -9 77 C-7.92818555 69.19240223 -6.24400103 61.55155128 -4 54 C-4.6509259 55.24735567 -5.29551669 56.49801832 -5.9375 57.75 C-6.29714844 58.44609375 -6.65679688 59.1421875 -7.02734375 59.859375 C-9.07635426 64.36884392 -9.28013903 68.85265724 -9.5625 73.75 C-9.60568359 74.44738281 -9.64886719 75.14476562 -9.69335938 75.86328125 C-9.79889596 77.57531922 -9.8998991 79.28763561 -10 81 C-10.33 81 -10.66 81 -11 81 C-11.99640129 67.49322699 -10.90984144 58.3710408 -3.97021484 46.69970703 C0.67358943 38.56428545 2.19523225 30.66014049 2.1875 21.4375 C2.18814453 20.64553223 2.18878906 19.85356445 2.18945312 19.03759766 C2.13161219 12.55284059 1.39259781 6.34129362 0 0 Z " fill="#3A58A7" transform="translate(696,460)"/>
<path d="M0 0 C0.92393555 0.00757324 1.84787109 0.01514648 2.79980469 0.02294922 C9.69881412 0.18952735 15.50725352 1.06435896 21.625 4.4375 C22.4190625 4.87320312 23.213125 5.30890625 24.03125 5.7578125 C34.15553677 11.93362743 40.42576332 20.92922881 43.73828125 32.23828125 C46.6538008 44.59198144 45.2508828 58.11091095 39.08203125 69.21484375 C32.24538939 79.61842919 22.96295247 86.79739028 10.625 89.4375 C-0.19763196 90.3053695 -11.64534807 90.80213685 -21.375 85.4375 C-22.1690625 85.00179688 -22.963125 84.56609375 -23.78125 84.1171875 C-34.46952395 77.59734039 -40.5133983 68.07559323 -43.6875 56.0625 C-46.18649565 42.58234075 -44.18379094 28.82088733 -36.375 17.4375 C-27.58267419 5.22718565 -14.7662831 -0.16982034 0 0 Z M-25.8203125 25.19921875 C-31.56525032 33.47019706 -32.61324407 43.3018562 -30.9140625 53.09375 C-28.42082418 62.59738785 -22.74875797 69.33624224 -14.5234375 74.62890625 C-6.8528474 78.75148932 2.26295795 78.75338171 10.6015625 76.70703125 C20.07244825 73.20194513 25.12269272 67.26034438 29.625 58.4375 C32.99688369 50.31432566 32.74723435 40.82107142 29.9375 32.5625 C26.36065852 24.00540355 21.90577483 18.82943805 13.625 14.4375 C-1.25796393 8.48022008 -15.93887706 13.00118123 -25.8203125 25.19921875 Z " fill="#000000" transform="translate(1540.375,1381.5625)"/>
<path d="M0 0 C0.92393555 0.00757324 1.84787109 0.01514648 2.79980469 0.02294922 C9.69881412 0.18952735 15.50725352 1.06435896 21.625 4.4375 C22.4190625 4.87320312 23.213125 5.30890625 24.03125 5.7578125 C34.15553677 11.93362743 40.42576332 20.92922881 43.73828125 32.23828125 C46.6538008 44.59198144 45.2508828 58.11091095 39.08203125 69.21484375 C32.24538939 79.61842919 22.96295247 86.79739028 10.625 89.4375 C-0.19763196 90.3053695 -11.64534807 90.80213685 -21.375 85.4375 C-22.1690625 85.00179688 -22.963125 84.56609375 -23.78125 84.1171875 C-34.46952395 77.59734039 -40.5133983 68.07559323 -43.6875 56.0625 C-46.18649565 42.58234075 -44.18379094 28.82088733 -36.375 17.4375 C-27.58267419 5.22718565 -14.7662831 -0.16982034 0 0 Z M-25.8203125 25.19921875 C-31.56525032 33.47019706 -32.61324407 43.3018562 -30.9140625 53.09375 C-28.42082418 62.59738785 -22.74875797 69.33624224 -14.5234375 74.62890625 C-6.8528474 78.75148932 2.26295795 78.75338171 10.6015625 76.70703125 C20.07244825 73.20194513 25.12269272 67.26034438 29.625 58.4375 C32.99688369 50.31432566 32.74723435 40.82107142 29.9375 32.5625 C26.36065852 24.00540355 21.90577483 18.82943805 13.625 14.4375 C-1.25796393 8.48022008 -15.93887706 13.00118123 -25.8203125 25.19921875 Z " fill="#000000" transform="translate(1085.375,1381.5625)"/>
<path d="M0 0 C9.71443689 6.68074755 14.76000904 15.5765246 17 27 C17.38885718 31.19443748 17.42182766 35.35211586 17.3984375 39.5625 C17.40130768 40.71621094 17.40417786 41.86992188 17.40713501 43.05859375 C17.40916242 45.47542823 17.40372606 47.89227962 17.39111328 50.30908203 C17.37492308 54.01761998 17.39106799 57.72508749 17.41015625 61.43359375 C17.40817589 63.78906491 17.40433651 66.1445354 17.3984375 68.5 C17.40451019 69.60931885 17.41058289 70.7186377 17.4168396 71.86157227 C17.40265488 73.39962524 17.40265488 73.39962524 17.38818359 74.96875 C17.38579681 75.87044922 17.38341003 76.77214844 17.38095093 77.70117188 C16.92529055 80.45083023 16.19705107 81.33685452 14 83 C11.15332193 83.5749726 8.95161603 83.28110629 6 83 C3.87163098 79.80744647 3.74755308 78.98485322 3.72875977 75.32006836 C3.71347984 73.89729836 3.71347984 73.89729836 3.69789124 72.44578552 C3.69575119 71.42082474 3.69361115 70.39586395 3.69140625 69.33984375 C3.66622825 67.16210691 3.64083051 64.98437259 3.61523438 62.80664062 C3.58659791 59.37932092 3.56258012 55.95204563 3.54370117 52.5246582 C3.52189535 49.21280985 3.48242491 45.90150205 3.44140625 42.58984375 C3.44123253 41.073657 3.44123253 41.073657 3.4410553 39.52684021 C3.31958201 30.68799653 1.93198959 21.89393384 -4 15 C-11.44409784 9.16499754 -19.61022552 6.89451783 -29 8 C-37.35496187 10.10009232 -43.45122249 12.95569023 -48.12866211 20.37768555 C-50.82749661 25.9776937 -50.5472613 31.60127994 -50.50390625 37.70703125 C-50.51332748 38.90937912 -50.52274872 40.11172699 -50.53245544 41.35050964 C-50.56102487 45.17134871 -50.56418503 48.99156287 -50.5625 52.8125 C-50.56610261 56.65119786 -50.57554581 60.48944563 -50.60325623 64.32804871 C-50.62010533 66.71187091 -50.62287333 69.09584225 -50.61024475 71.47969055 C-50.61712814 72.55478378 -50.62401154 73.62987701 -50.63110352 74.73754883 C-50.63014175 75.68382645 -50.62917999 76.63010406 -50.62818909 77.60505676 C-51.06610198 80.42578224 -51.73827364 81.31271457 -54 83 C-56.79881044 83.5154245 -59.11759395 83.22876238 -62 83 C-64.51622535 80.48377465 -64.24332854 78.93911062 -64.27105713 75.50608826 C-64.26700867 74.7403096 -64.26296021 73.97453094 -64.25878906 73.18554688 C-64.2622937 72.37892105 -64.26579834 71.57229523 -64.26940918 70.7412262 C-64.27823313 68.06698068 -64.27237505 65.39299834 -64.265625 62.71875 C-64.26697146 60.86551869 -64.26891183 59.01228772 -64.27142334 57.15905762 C-64.2743755 53.27185712 -64.27007401 49.38474843 -64.26074219 45.49755859 C-64.2493476 40.50703372 -64.25590658 35.51672395 -64.26788712 30.52620697 C-64.27510324 26.6984494 -64.27281893 22.87074309 -64.26763153 19.04298401 C-64.26629435 17.20251948 -64.26794515 15.36205034 -64.27259064 13.52159119 C-64.27765182 10.95241918 -64.26995152 8.38359884 -64.25878906 5.81445312 C-64.26283752 5.04867447 -64.26688599 4.28289581 -64.27105713 3.49391174 C-64.22852852 -1.77147148 -64.22852852 -1.77147148 -62 -4 C-54.91715976 -4.56213018 -54.91715976 -4.56213018 -52.0625 -2.8125 C-50.76016952 -0.59087742 -50.4575741 1.48128129 -50 4 C-49.28714844 3.51789063 -48.57429688 3.03578125 -47.83984375 2.5390625 C-46.88207031 1.90742187 -45.92429687 1.27578125 -44.9375 0.625 C-43.99777344 -0.00148438 -43.05804687 -0.62796875 -42.08984375 -1.2734375 C-29.99140048 -8.03388241 -11.64906471 -7.25769805 0 0 Z " fill="#000000" transform="translate(1690,1387)"/>
<path d="M0 0 C2.46797626 2.46797626 2.25757979 3.18476192 2.28710938 6.58227539 C2.30052368 7.53409195 2.31393799 8.48590851 2.32775879 9.46656799 C2.33303589 10.49982712 2.33831299 11.53308624 2.34375 12.59765625 C2.3583728 13.66108749 2.37299561 14.72451874 2.38806152 15.82017517 C2.43468555 19.23424484 2.46878022 22.64825678 2.5 26.0625 C2.54132362 30.53276153 2.59516913 35.00262598 2.65625 39.47265625 C2.6615271 40.49174576 2.6668042 41.51083527 2.67224121 42.56080627 C2.80925784 52.50824455 3.89274696 61.51562741 11 69 C18.63308772 74.05661963 25.94934569 75.74425351 35 75 C42.90718283 73.27939702 49.3592394 69.79539946 54 63 C55.70474451 59.38142124 56.25302971 56.52649342 56.27124023 52.53881836 C56.28142685 51.47098618 56.29161346 50.40315399 56.30210876 49.30296326 C56.30424881 48.16013382 56.30638885 47.01730438 56.30859375 45.83984375 C56.3337426 43.41340894 56.35914078 40.9869767 56.38476562 38.56054688 C56.41356683 34.73983362 56.43758978 30.91916485 56.45629883 27.09838867 C56.47790058 23.40781201 56.51732409 19.71774508 56.55859375 16.02734375 C56.55870956 14.88249008 56.55882538 13.73763641 56.5589447 12.55809021 C56.57228348 11.49341019 56.58562225 10.42873016 56.59936523 9.33178711 C56.60443588 8.39644638 56.60950653 7.46110565 56.61473083 6.49742126 C57.07017227 3.54512392 57.96576757 2.1581007 60 0 C62.83568858 -0.66259654 65.04239226 -0.28167693 68 0 C70.51622535 2.51622535 70.24332854 4.06088938 70.27105713 7.49391174 C70.26700867 8.2596904 70.26296021 9.02546906 70.25878906 9.81445312 C70.2622937 10.62107895 70.26579834 11.42770477 70.26940918 12.2587738 C70.27823313 14.93301932 70.27237505 17.60700166 70.265625 20.28125 C70.26697146 22.13448131 70.26891183 23.98771228 70.27142334 25.84094238 C70.2743755 29.72814288 70.27007401 33.61525157 70.26074219 37.50244141 C70.2493476 42.49296628 70.25590658 47.48327605 70.26788712 52.47379303 C70.27510324 56.3015506 70.27281893 60.12925691 70.26763153 63.95701599 C70.26629435 65.79748052 70.26794515 67.63794966 70.27259064 69.47840881 C70.27765182 72.04758082 70.26995152 74.61640116 70.25878906 77.18554688 C70.26283752 77.95132553 70.26688599 78.71710419 70.27105713 79.50608826 C70.22852852 84.77147148 70.22852852 84.77147148 68 87 C65.06941372 87.27910345 62.84451727 87.47797216 60 87 C57.35638838 84.61222176 56.78769053 82.37784408 56 79 C55.443125 79.39832031 54.88625 79.79664063 54.3125 80.20703125 C53.549375 80.73683594 52.78625 81.26664063 52 81.8125 C51.2575 82.33457031 50.515 82.85664062 49.75 83.39453125 C42.97764384 87.34827895 36.99396297 88.53146392 29.1875 88.4375 C28.30674805 88.42992676 27.42599609 88.42235352 26.51855469 88.41455078 C16.1150022 88.15167976 7.62472787 85.25396943 0 78 C-9.87998685 67.46399792 -11.14794654 56.32297297 -11.203125 42.36328125 C-11.20882507 41.24688766 -11.21452515 40.13049408 -11.22039795 38.98027039 C-11.22981952 36.62772564 -11.23637059 34.27516786 -11.24023438 31.92260742 C-11.24999402 28.31471164 -11.28106622 24.70737293 -11.3125 21.09960938 C-11.3190253 18.81250338 -11.32427762 16.52539332 -11.328125 14.23828125 C-11.3404718 13.15702469 -11.3528186 12.07576813 -11.36553955 10.96174622 C-11.3610379 9.45954781 -11.3610379 9.45954781 -11.35644531 7.92700195 C-11.36009094 7.0457515 -11.36373657 6.16450104 -11.36749268 5.25654602 C-10.31982736 -1.17652098 -5.24162872 -0.41600228 0 0 Z " fill="#000000" transform="translate(1242,1383)"/>
<path d="M0 0 C9.39457183 6.8100954 9.39457183 6.8100954 10.8671875 12.13671875 C11 15 11 15 9.5 17.4375 C7 19 7 19 3.6875 19.125 C-0.30860309 17.9058499 -2.15919317 16.48632938 -5.03125 13.5703125 C-10.27473435 9.3880095 -15.50429658 8.51268063 -22.0625 8.625 C-22.74376953 8.61339844 -23.42503906 8.60179687 -24.12695312 8.58984375 C-29.61752875 8.62148972 -33.35223846 10.17395756 -37.8125 13.25 C-39.74806609 16.10241318 -39.88276588 18.60021038 -40 22 C-38.4097046 26.55884681 -35.60879748 27.99661948 -31.37866211 30.04321289 C-27.13928912 31.7484477 -22.7209065 32.50471492 -18.25 33.375 C-7.46160182 35.66914643 2.74670431 38.13447181 9.9140625 47.19140625 C13.39658175 52.99142932 13.71745718 58.37941409 13 65 C11.25042213 71.71544561 7.81766601 76.27305771 2 80 C-10.41521866 86.54315578 -25.78366711 87.22480573 -39.25 83.375 C-46.11325646 80.86144374 -53.07281428 77.4062217 -57 71 C-56.875 67.375 -56.875 67.375 -56 64 C-52.42529543 61.61686362 -51.21446465 61.35162082 -47 62 C-45.40625 63.203125 -45.40625 63.203125 -43.75 64.75 C-35.84794614 71.96789335 -27.23278309 72.72189686 -16.94921875 72.31640625 C-10.6953984 71.81535833 -6.86706296 71.05376926 -2.5 66.25 C-0.72206045 62.39779764 -0.31401149 60.19215198 -1 56 C-6.40237568 48.25659485 -16.20544489 46.89293752 -24.875 45.125 C-34.79230499 43.06175756 -44.63332743 40.19471379 -50.953125 31.71875 C-54.23980537 26.32270761 -54.87637684 20.91630901 -53.5 14.765625 C-51.67511016 8.5858844 -49.21107554 3.92351765 -43.59375 0.55859375 C-31.25763989 -5.80901603 -12.23057905 -7.55595905 0 0 Z " fill="#000000" transform="translate(1803,1386)"/>
<path d="M0 0 C0.88733826 0.00247742 1.77467651 0.00495483 2.68890381 0.00750732 C3.62232605 0.00239639 4.55574829 -0.00271454 5.51745605 -0.00798035 C8.61373238 -0.02192067 11.70978726 -0.0209164 14.80609131 -0.01861572 C16.95078617 -0.02249991 19.09548026 -0.026834 21.24017334 -0.03160095 C25.73938489 -0.03907251 30.23851798 -0.03876489 34.73773193 -0.0335083 C40.5152509 -0.02770921 46.29244976 -0.04465088 52.06991577 -0.06785297 C56.49987682 -0.08255381 60.9297601 -0.08346706 65.35974121 -0.08034325 C67.49048497 -0.08085819 69.62123289 -0.08612819 71.75195312 -0.09615517 C74.72594274 -0.10843312 77.69930001 -0.10178032 80.67327881 -0.09014893 C81.56061707 -0.09779266 82.44795532 -0.1054364 83.36218262 -0.11331177 C85.80950928 -0.09205627 85.80950928 -0.09205627 89.68109131 0.28216553 C91.68109131 3.28216553 91.68109131 3.28216553 91.49359131 6.84466553 C90.68109131 10.28216553 90.68109131 10.28216553 87.68109131 12.28216553 C85.80177307 12.52267456 85.80177307 12.52267456 83.66864014 12.50921631 C82.86803665 12.50906525 82.06743317 12.50891418 81.24256897 12.50875854 C80.38310165 12.49843597 79.52363434 12.4881134 78.63812256 12.47747803 C77.7545256 12.47464813 76.87092865 12.47181824 75.96055603 12.46890259 C73.13809677 12.4577065 70.31595468 12.43260303 67.49359131 12.40716553 C65.58018443 12.39713498 63.66677258 12.38800926 61.75335693 12.37982178 C57.06247949 12.35776904 52.37183918 12.32324314 47.68109131 12.28216553 C47.68293489 12.84723249 47.68477848 13.41229946 47.68667793 13.99448967 C47.73080893 27.73137812 47.76379687 41.46825419 47.78471565 55.20519829 C47.79517066 61.84823109 47.80936111 68.49121287 47.83197021 75.13421631 C47.85363745 81.54027943 47.86564698 87.94629336 47.87084579 94.35239029 C47.87455258 96.80131938 47.88179056 99.25024565 47.89255142 101.6991539 C47.90698498 105.11864882 47.90907267 108.53793822 47.90814209 111.9574585 C47.91533264 112.97884918 47.92252319 114.00023987 47.92993164 115.05258179 C47.92718231 115.98088806 47.92443298 116.90919434 47.92160034 117.8656311 C47.92344393 118.67496534 47.92528751 119.48429958 47.92718697 120.3181591 C47.68109131 122.28216553 47.68109131 122.28216553 45.68109131 124.28216553 C38.42372321 124.85814712 38.42372321 124.85814712 36.08034801 123.04063702 C34.29906588 120.80206719 34.31052678 119.62235798 34.32032776 116.78334045 C34.31620377 115.86207367 34.31207977 114.94080688 34.30783081 113.99162292 C34.31861664 112.98317825 34.32940247 111.97473358 34.34051514 110.93572998 C34.34007706 109.87215271 34.33963898 108.80857544 34.33918762 107.71276855 C34.34128103 104.19014253 34.36463868 100.66798986 34.38812256 97.14544678 C34.39371653 94.70593018 34.39798757 92.26641021 34.40098572 89.82688904 C34.41245005 83.4004692 34.44193112 76.97425219 34.47509766 70.5479126 C34.50576419 63.99256128 34.51948376 57.43717725 34.53460693 50.8817749 C34.56679911 38.01515182 34.6174396 25.14866945 34.68109131 12.28216553 C33.52061279 12.29787598 32.36013428 12.31358643 31.16448975 12.32977295 C26.85580394 12.38410477 22.54714838 12.41852744 18.23822021 12.44696045 C16.37391059 12.46203966 14.50963639 12.48250613 12.64544678 12.50848389 C9.96453098 12.54490549 7.28408451 12.56190043 4.60296631 12.57513428 C3.77053406 12.59061813 2.93810181 12.60610199 2.08044434 12.62205505 C-1.40012296 12.62306551 -3.71858508 12.58909399 -6.85308838 10.98651123 C-8.31890869 9.28216553 -8.31890869 9.28216553 -8.69390869 5.71966553 C-8.03542994 -0.3163897 -5.47123645 0.04799629 0 0 Z " fill="#0F75BC" transform="translate(735.3189086914063,1345.7178344726563)"/>
<path d="M0 0 C1.97265625 0.4609375 1.97265625 0.4609375 3.57763672 2.09619141 C5.38511935 5.16011803 5.31577228 7.21407164 5.265625 10.7578125 C5.25595703 11.96308594 5.24628906 13.16835937 5.23632812 14.41015625 C5.21119141 15.66441406 5.18605469 16.91867187 5.16015625 18.2109375 C5.13985352 20.11552734 5.13985352 20.11552734 5.11914062 22.05859375 C5.08378865 25.19313594 5.03443873 28.32682295 4.97265625 31.4609375 C5.59833496 31.45046387 6.22401367 31.43999023 6.86865234 31.42919922 C9.69494635 31.38770559 12.52117636 31.36163277 15.34765625 31.3359375 C16.3325 31.31917969 17.31734375 31.30242187 18.33203125 31.28515625 C19.74355469 31.27548828 19.74355469 31.27548828 21.18359375 31.265625 C22.05290527 31.25515137 22.9222168 31.24467773 23.81787109 31.23388672 C25.97265625 31.4609375 25.97265625 31.4609375 27.97265625 33.4609375 C28.53013737 38.70126001 28.53013737 38.70126001 26.74487305 41.1340332 C24.45345234 42.84967882 23.14594247 42.80819775 20.3046875 42.75390625 C19.41201172 42.74423828 18.51933594 42.73457031 17.59960938 42.72460938 C16.20645508 42.6869043 16.20645508 42.6869043 14.78515625 42.6484375 C13.84478516 42.63490234 12.90441406 42.62136719 11.93554688 42.60742188 C9.61400587 42.57206846 7.29361972 42.52272424 4.97265625 42.4609375 C5.03976043 49.18736834 5.12960819 55.91322271 5.23510742 62.63916016 C5.26831631 64.92619976 5.29636076 67.21332053 5.3190918 69.50048828 C5.35271135 72.79234328 5.40503249 76.08345722 5.4609375 79.375 C5.46732742 80.39397369 5.47371735 81.41294739 5.4803009 82.46279907 C5.59140789 87.85444132 5.89741931 91.83032881 8.97265625 96.4609375 C14.41805318 101.37507619 17.96856639 101.65394429 25.125 101.984375 C28.22840834 102.50373826 29.16984701 102.93940033 30.97265625 105.4609375 C31.93271162 108.68398054 32.40886612 110.53315265 30.95703125 113.62109375 C28.03834874 116.32719505 25.12628822 116.06020407 21.34765625 115.9609375 C20.62924561 115.94957764 19.91083496 115.93821777 19.1706543 115.92651367 C11.8622933 115.66005012 6.71589916 113.83841469 1.16015625 109.0234375 C0.43828125 108.1778125 -0.28359375 107.3321875 -1.02734375 106.4609375 C-2.07921875 105.31625 -2.07921875 105.31625 -3.15234375 104.1484375 C-8.2202087 96.88449774 -8.44399196 90.10433874 -8.3203125 81.5234375 C-8.31606766 80.40275879 -8.31182281 79.28208008 -8.30744934 78.12744141 C-8.29074686 74.57168876 -8.25310943 71.01651691 -8.21484375 67.4609375 C-8.19978606 65.04037281 -8.18609955 62.61979917 -8.17382812 60.19921875 C-8.14087095 54.28626242 -8.09075577 48.37364147 -8.02734375 42.4609375 C-9.01476563 42.48414063 -10.0021875 42.50734375 -11.01953125 42.53125 C-12.30085938 42.54929687 -13.5821875 42.56734375 -14.90234375 42.5859375 C-16.17851563 42.60914063 -17.4546875 42.63234375 -18.76953125 42.65625 C-22.02734375 42.4609375 -22.02734375 42.4609375 -24.02734375 40.4609375 C-24.27734375 36.9609375 -24.27734375 36.9609375 -24.02734375 33.4609375 C-22.02734375 31.4609375 -22.02734375 31.4609375 -18.76953125 31.265625 C-17.49335937 31.28882813 -16.2171875 31.31203125 -14.90234375 31.3359375 C-12.98035156 31.36300781 -12.98035156 31.36300781 -11.01953125 31.390625 C-9.53839844 31.42542969 -9.53839844 31.42542969 -8.02734375 31.4609375 C-8.03781738 30.59291504 -8.04829102 29.72489258 -8.05908203 28.83056641 C-8.09314091 25.61394222 -8.11823142 22.39740983 -8.13720703 19.18066406 C-8.14727252 17.78772969 -8.16092609 16.39481648 -8.17822266 15.00195312 C-8.20244595 13.0013939 -8.21275189 11.00068135 -8.22265625 9 C-8.23312988 7.79553223 -8.24360352 6.59106445 -8.25439453 5.35009766 C-7.82157691 -0.15739019 -4.87157123 0.20032629 0 0 Z " fill="#000000" transform="translate(1370.02734375,1354.5390625)"/>
<path d="M0 0 C27.63087623 22.33985738 47.81094586 59.79367516 51.71875 95.0390625 C53.68868902 122.78237038 49.79772152 153.33007861 31.2578125 175.3828125 C28.6153148 178.37024307 25.8282337 181.1885262 23 184 C22.26394531 184.77214844 21.52789063 185.54429687 20.76953125 186.33984375 C16.81175547 190.45072497 12.81228645 193.92013667 8 197 C7.34 197 6.68 197 6 197 C7.38855824 193.8338189 8.24314389 192.8015152 11.0625 190.5 C26.44170683 177.70526569 36.12454492 155.29775214 38.640625 135.78515625 C40.37959676 116.77460914 39.69219751 97.52245961 35 79 C34.68417969 77.74445313 34.36835937 76.48890625 34.04296875 75.1953125 C28.28487494 55.8291393 17.77139381 37.62814705 6.890625 20.72265625 C6.24609375 19.72105469 5.6015625 18.71945312 4.9375 17.6875 C4.36902344 16.82511719 3.80054688 15.96273438 3.21484375 15.07421875 C2 13 2 13 2 11 C1.34 11 0.68 11 0 11 C0 7.37 0 3.74 0 0 Z " fill="#1A749E" transform="translate(740,392)"/>
<path d="M0 0 C1.97265625 0.4609375 1.97265625 0.4609375 3.57189941 1.89932251 C5.71010661 5.8095398 5.38733771 9.5192009 5.35742188 13.90771484 C5.36548103 15.3425396 5.36548103 15.3425396 5.373703 16.80635071 C5.38348337 18.88250076 5.38642438 20.95869171 5.38334656 23.03486252 C5.37887217 26.32191242 5.39285888 29.60842291 5.41174316 32.89541626 C5.44854857 39.87558116 5.46223708 46.85568984 5.47265625 53.8359375 C5.48473316 61.91788811 5.50627964 69.99957659 5.55265808 78.08140945 C5.56623101 81.31759167 5.56205649 84.55344281 5.55725098 87.78964233 C5.56659281 89.77822287 5.57676194 91.76679975 5.58789062 93.75537109 C5.5817424 94.65323837 5.57559418 95.55110565 5.56925964 96.47618103 C5.61894949 101.53725484 6.12364967 105.09048755 8.97265625 109.4609375 C11.81717855 110.88319865 14.63677849 110.83855487 17.78125 111.08203125 C19.97265625 111.4609375 19.97265625 111.4609375 22.97265625 113.4609375 C24.50560199 119.3737282 24.50560199 119.3737282 22.8984375 122.65234375 C19.37819231 125.95837524 15.07901382 125.0479898 10.49609375 124.90625 C4.70969055 124.17493075 1.31357443 122.04858485 -2.546875 117.78125 C-7.72487043 111.06627034 -8.32130409 104.49840237 -8.28613281 96.26464844 C-8.28963745 95.25261353 -8.29314209 94.24057861 -8.29675293 93.19787598 C-8.30553278 89.86361774 -8.29973601 86.52957277 -8.29296875 83.1953125 C-8.29431605 80.87697306 -8.29625713 78.55863389 -8.29876709 76.24029541 C-8.30171292 71.3883596 -8.29743647 66.53649754 -8.28808594 61.68457031 C-8.27666631 55.45434611 -8.28327022 49.22429374 -8.29523087 42.99407578 C-8.30244234 38.21070042 -8.30016526 33.42736613 -8.29497528 28.64398956 C-8.29363813 26.34578684 -8.29528879 24.04758043 -8.29993439 21.74938202 C-8.30499064 18.54603622 -8.29730317 15.34297308 -8.28613281 12.13964844 C-8.29018127 11.18378845 -8.29422974 10.22792847 -8.29840088 9.24310303 C-8.28994141 7.93937744 -8.28994141 7.93937744 -8.28131104 6.60931396 C-8.28055698 5.8520187 -8.27980293 5.09472343 -8.27902603 4.31447983 C-7.63903511 -0.39880495 -3.92926689 0.16157733 0 0 Z " fill="#000000" transform="translate(1175.02734375,1345.5390625)"/>
<path d="M0 0 C1.0209375 0.01546875 1.0209375 0.01546875 2.0625 0.03125 C2.743125 0.0209375 3.42375 0.010625 4.125 0 C6.89984766 0.76084533 7.57051179 2.11633846 9.0625 4.53125 C9.44002342 6.82388306 9.44002342 6.82388306 9.44345093 9.38916016 C9.4519104 10.36492004 9.46036987 11.34067993 9.46908569 12.3460083 C9.463013 13.41002869 9.45694031 14.47404907 9.45068359 15.5703125 C9.45594055 16.69588562 9.46119751 17.82145874 9.46661377 18.98114014 C9.47983081 22.7063174 9.47106928 26.43106829 9.4609375 30.15625 C9.46295773 32.74170005 9.46586875 35.32714956 9.46963501 37.91259766 C9.47406069 43.33306829 9.46790502 48.75337831 9.45361328 54.17382812 C9.43728692 60.4382466 9.44257555 66.70237215 9.4590925 72.96678352 C9.47435238 78.99602427 9.47273021 85.02512183 9.4639473 91.05438232 C9.46194344 93.61887656 9.46441104 96.18337824 9.47138596 98.74786377 C9.47898908 102.32950761 9.46741136 105.91058587 9.45068359 109.4921875 C9.45979263 111.08821808 9.45979263 111.08821808 9.46908569 112.7164917 C9.45639648 114.18013153 9.45639648 114.18013153 9.44345093 115.67333984 C9.44231985 116.51988129 9.44118877 117.36642273 9.44002342 118.23861694 C8.97557545 121.05912743 7.98701276 122.44733423 6.0625 124.53125 C4.125 125.0625 4.125 125.0625 2.0625 125.03125 C1.0415625 125.04671875 1.0415625 125.04671875 0 125.0625 C-2.77484766 124.30165467 -3.44551179 122.94616154 -4.9375 120.53125 C-5.31502342 118.23861694 -5.31502342 118.23861694 -5.31845093 115.67333984 C-5.3269104 114.69757996 -5.33536987 113.72182007 -5.34408569 112.7164917 C-5.338013 111.65247131 -5.33194031 110.58845093 -5.32568359 109.4921875 C-5.33094055 108.36661438 -5.33619751 107.24104126 -5.34161377 106.08135986 C-5.35483081 102.3561826 -5.34606928 98.63143171 -5.3359375 94.90625 C-5.33795773 92.32079995 -5.34086875 89.73535044 -5.34463501 87.14990234 C-5.34906069 81.72943171 -5.34290502 76.30912169 -5.32861328 70.88867188 C-5.31228692 64.6242534 -5.31757555 58.36012785 -5.3340925 52.09571648 C-5.34935238 46.06647573 -5.34773021 40.03737817 -5.3389473 34.00811768 C-5.33694344 31.44362344 -5.33941104 28.87912176 -5.34638596 26.31463623 C-5.35398908 22.73299239 -5.34241136 19.15191413 -5.32568359 15.5703125 C-5.33175629 14.50629211 -5.33782898 13.44227173 -5.34408569 12.3460083 C-5.33562622 11.37024841 -5.32716675 10.39448853 -5.31845093 9.38916016 C-5.31731985 8.54261871 -5.31618877 7.69607727 -5.31502342 6.82388306 C-4.76134694 3.46150358 -3.39554373 0.93103618 0 0 Z " fill="#0F75BC" transform="translate(682.9375,1345.46875)"/>
<path d="M0 0 C2.27957824 3.59206268 3.65880989 7.03598285 5.07421875 11.03515625 C9.64730049 23.78205187 14.98307379 31.42407078 26.87109375 38.16015625 C32.94075855 41.72921008 37.85832893 46.30520227 42 52 C38.28400809 52.20086443 37.22791555 52.1519437 34 50 C30.25288514 50.30714056 26.69011045 50.87060429 23 51.5625 C10.34920716 53.40740729 -0.57768222 49.38401137 -10.81640625 41.95703125 C-17.87180376 36.01619728 -22.42216456 29.55456949 -24.0625 20.375 C-24.33886093 15.47822972 -22.98869494 11.86005831 -20 8 C-14.71777897 3.04301126 -7.40635888 -3.05914823 0 0 Z " fill="#3A58A7" transform="translate(659,535)"/>
<path d="M0 0 C-0.0314209 0.85996582 -0.0314209 0.85996582 -0.06347656 1.73730469 C-0.14810797 4.40801477 -0.19911318 7.07844176 -0.25 9.75 C-0.28351562 10.65105469 -0.31703125 11.55210937 -0.3515625 12.48046875 C-0.52102345 24.4274655 4.00962921 33.76252004 10.25 43.6875 C21.72328586 62.57891399 32.84226734 84.25878169 32 107 C29.38245702 104.38245702 28.83934645 101.51601376 27.8125 98.0625 C24.4515685 87.48567383 18.86268998 79.61941993 11.3203125 71.52734375 C8.14032537 68.06362039 5.19735434 64.43085776 2.25390625 60.765625 C0.77744615 58.95395472 -0.73493356 57.17084419 -2.28515625 55.421875 C-11.30101571 45.09152488 -18.64013411 32.57814706 -19.33203125 18.57421875 C-18.86354643 13.53111744 -17.1347732 11.18635537 -13.44140625 7.83984375 C-12.63574219 7.23269531 -11.83007812 6.62554687 -11 6 C-10.18402344 5.38253906 -9.36804688 4.76507813 -8.52734375 4.12890625 C-2.66296189 0 -2.66296189 0 0 0 Z " fill="#1A749E" transform="translate(696,336)"/>
<path d="M0 0 C1.44365786 4.61213061 0.25312705 7.91961357 -1.0625 12.4375 C-1.35157227 13.56381836 -1.35157227 13.56381836 -1.64648438 14.71289062 C-3.26595018 20.34387724 -5.33239297 22.52502408 -10 26 C-15.66660137 33.03917815 -17.9386342 41.34226364 -20 50 C-20.176521 50.73371826 -20.35304199 51.46743652 -20.53491211 52.22338867 C-21.1165866 55.6960312 -21.18091989 59.11430284 -21.203125 62.625 C-21.21013931 63.36028931 -21.21715363 64.09557861 -21.22438049 64.85314941 C-21.2419088 67.23549503 -21.24823998 69.61759212 -21.25 72 C-21.25067474 72.81267334 -21.25134949 73.62534668 -21.25204468 74.46264648 C-21.23523273 87.1944768 -20.67410445 99.51136326 -18 112 C-17.82307617 112.83869629 -17.64615234 113.67739258 -17.46386719 114.54150391 C-12.03108774 140.43278613 -12.03108774 140.43278613 2 162 C1.67 162.99 1.34 163.98 1 165 C-13.40390506 151.47796667 -22.7847888 134.98415897 -28 116 C-28.3196875 114.87464844 -28.639375 113.74929688 -28.96875 112.58984375 C-33.71925086 92.37822204 -32.61778966 68.8861445 -27 49 C-26.72712158 47.99743164 -26.72712158 47.99743164 -26.44873047 46.97460938 C-21.71238291 29.99317381 -12.95954961 12.24617991 0 0 Z " fill="#1A749E" transform="translate(631,414)"/>
<path d="M0 0 C5.80512153 0.23871528 5.80512153 0.23871528 8.02734375 2.4609375 C8.22577989 5.10036236 8.30009257 7.63486088 8.28613281 10.27539062 C8.28963745 11.08201645 8.29314209 11.88864227 8.29675293 12.7197113 C8.30557688 15.39395682 8.2997188 18.06793916 8.29296875 20.7421875 C8.29431521 22.59541881 8.29625558 24.44864978 8.29876709 26.30187988 C8.30171925 30.18908038 8.29741776 34.07618907 8.28808594 37.96337891 C8.27669135 42.95390378 8.28325033 47.94421355 8.29523087 52.93473053 C8.30244699 56.7624881 8.30016268 60.59019441 8.29497528 64.41795349 C8.2936381 66.25841802 8.2952889 68.09888716 8.29993439 69.93934631 C8.30499557 72.50851832 8.29729527 75.07733866 8.28613281 77.64648438 C8.29018127 78.41226303 8.29422974 79.17804169 8.29840088 79.96702576 C8.25587227 85.23240898 8.25587227 85.23240898 6.02734375 87.4609375 C0.34385751 88.0022219 0.34385751 88.0022219 -1.97265625 87.4609375 C-4.50850909 85.00101941 -4.96180754 83.55927901 -5.35360718 80.00769043 C-5.37138501 78.61135783 -5.37264956 77.2147552 -5.36083984 75.81835938 C-5.3660968 75.05366837 -5.37135376 74.28897736 -5.37677002 73.50111389 C-5.38995803 70.97709642 -5.38123644 68.45371123 -5.37109375 65.9296875 C-5.37311484 64.1737862 -5.37602656 62.41788573 -5.37979126 60.6619873 C-5.38421298 56.98339846 -5.3777885 53.30502826 -5.36376953 49.62646484 C-5.34667767 44.91185858 -5.35651968 40.19776466 -5.37448692 35.48317719 C-5.3853289 31.85776918 -5.38187653 28.23248259 -5.37410355 24.60707092 C-5.37210268 22.86873819 -5.37455683 21.13039443 -5.38154221 19.39207458 C-5.38916357 16.96225801 -5.37754348 14.53327047 -5.36083984 12.10351562 C-5.36691254 11.38547256 -5.37298523 10.6674295 -5.37924194 9.92762756 C-5.33963213 6.8165362 -5.13076756 4.73731113 -3.57168579 2.01208496 C-1.97265625 0.4609375 -1.97265625 0.4609375 0 0 Z " fill="#000000" transform="translate(1444.97265625,1382.5390625)"/>
<path d="M0 0 C1.65 0.33 3.3 0.66 5 1 C4.99363525 1.6712793 4.98727051 2.34255859 4.98071289 3.03417969 C4.93874946 18.07488973 6.31839245 31.77729739 10.47290039 46.26855469 C12.63495461 53.88070476 13.6822479 61.09024242 14 69 C13.01 69 12.02 69 11 69 C9.5594127 63.86905715 8.13326596 58.7343822 6.71875 53.59619141 C6.02965839 51.10712883 5.32771368 48.62196259 4.625 46.13671875 C0.28021104 30.54143147 -1.59196071 16.17776293 0 0 Z " fill="#4D64AF" transform="translate(638,451)"/>
<path d="M0 0 C3.76146709 2.04427559 4.77879397 3.25342966 6 7.375 C6 11.4753237 5.20128746 13.57577506 3 17 C-0.46196518 18.73098259 -4.21454927 18.47149742 -8 18 C-11.40066339 15.87458538 -11.88251741 14.4307695 -12.9375 10.5625 C-13.00754154 6.57013213 -12.46465254 5.08081567 -10 2 C-6.2626144 -0.4915904 -4.42668417 -0.45793285 0 0 Z " fill="#000000" transform="translate(1450,1348)"/>
<path d="M0 0 C1.32 0 2.64 0 4 0 C4.03963867 0.63800537 4.07927734 1.27601074 4.12011719 1.93334961 C4.86810343 13.43932031 5.64972509 24.67841759 8.76660156 35.82006836 C9.69962341 39.21330784 10.32674465 41.65356126 9 45 C7.1875 44.9375 7.1875 44.9375 5 44 C2.34880101 38.80581422 1.17322169 33.80162716 0.3125 28.0625 C0.18584961 27.24144775 0.05919922 26.42039551 -0.07128906 25.57446289 C-2.8976889 5.79537779 -2.8976889 5.79537779 0 0 Z " fill="#4E64AF" transform="translate(622,455)"/>
<path d="M0 0 C0.99 0.33 1.98 0.66 3 1 C2.08457692 8.58493412 2.08457692 8.58493412 1.47973633 11.55322266 C0.87496311 15.89835664 0.933578 20.10551446 1.0078125 24.484375 C1.02531214 26.32421339 1.04222199 28.16405747 1.05859375 30.00390625 C1.08967977 32.88997153 1.12541028 35.77575235 1.17138672 38.66162109 C1.21354328 41.45674294 1.23710035 44.25152346 1.2578125 47.046875 C1.27643341 47.91455505 1.29505432 48.78223511 1.3142395 49.6762085 C1.32470703 52.10449219 1.32470703 52.10449219 1 56 C0.01 56.66 -0.98 57.32 -2 58 C-2.74728023 55.28289363 -3.16692872 52.74964877 -3.31640625 49.9375 C-3.35862305 49.15052734 -3.40083984 48.36355469 -3.44433594 47.55273438 C-5.16714811 10.33429622 -5.16714811 10.33429622 0 0 Z " fill="#4D64AF" transform="translate(667,369)"/>
<path d="M0 0 C3.30190126 3.6591245 4.32648891 7.67553292 5.625 12.3125 C5.8415625 13.04662109 6.058125 13.78074219 6.28125 14.53710938 C8.73375657 23.06789611 9.18211997 31.22311407 9.1875 40.0625 C9.19974609 41.12533203 9.21199219 42.18816406 9.22460938 43.28320312 C9.2345263 48.57553492 9.16514881 53.06209146 7 58 C5.68 57.67 4.36 57.34 3 57 C3.15855469 55.89914062 3.31710937 54.79828125 3.48046875 53.6640625 C5.47114026 37.54775564 3.87065821 21.87931386 0.3671875 6.10864258 C0 4 0 4 0 0 Z " fill="#4D64AF" transform="translate(741,403)"/>
<path d="M0 0 C4.05739058 3.43801016 5.74145587 7.27388941 7.75 12.0625 C8.06582031 12.78244141 8.38164063 13.50238281 8.70703125 14.24414062 C10.01924974 17.30314347 11 19.63803058 11 23 C5.46398272 18.39863498 0.60136502 13.53601728 -4 8 C-2.68 5.36 -1.36 2.72 0 0 Z " fill="#1A749E" transform="translate(645,434)"/>
<path d="M0 0 C1 2 1 2 0.328125 4.3359375 C-0.02765625 5.33882812 -0.3834375 6.34171875 -0.75 7.375 C-3.66848076 16.38378262 -4.76777431 25.63695174 -6 35 C-6.33 35 -6.66 35 -7 35 C-7.88363082 9.93924803 -7.88363082 9.93924803 0 0 Z " fill="#637ABC" transform="translate(693,511)"/>
</svg>
